<svg xmlns="http://www.w3.org/2000/svg" xmlns:xlink="http://www.w3.org/1999/xlink" viewBox="0 0 592 333"><defs><radialGradient id="Degradado_sin_nombre_6" cx="296" cy="166.5" r="240.14397" gradientUnits="userSpaceOnUse"><stop offset="0" stop-color="#0071bc"/><stop offset="0.06772" stop-color="#005e9c" stop-opacity="0.83171"/><stop offset="0.17046" stop-color="#004573" stop-opacity="0.61194"/><stop offset="0.27931" stop-color="#00304f" stop-opacity="0.42284"/><stop offset="0.39343" stop-color="#001e33" stop-opacity="0.26879"/><stop offset="0.51456" stop-color="#00111c" stop-opacity="0.14969"/><stop offset="0.64588" stop-color="#00070c" stop-opacity="0.06534"/><stop offset="0.79491" stop-color="#000203" stop-opacity="0.01555"/><stop offset="1" stop-opacity="0"/></radialGradient><linearGradient id="Degradado_sin_nombre_5" x1="175.40303" y1="190.78141" x2="329.1063" y2="190.78141" gradientUnits="userSpaceOnUse"><stop offset="0" stop-color="aqua"/><stop offset="1" stop-color="#1b1464"/></linearGradient><linearGradient id="Degradado_sin_nombre_5-2" x1="263.72404" y1="133.61903" x2="548.9803" y2="133.61903" xlink:href="#Degradado_sin_nombre_5"/><linearGradient id="Degradado_sin_nombre_12" x1="43.7376" y1="133.61901" x2="296.43375" y2="133.61901" gradientUnits="userSpaceOnUse"><stop offset="0" stop-color="#1b1464"/><stop offset="1" stop-color="aqua"/></linearGradient><linearGradient id="Degradado_sin_nombre_12-2" x1="296.35897" y1="174.40794" x2="417.31488" y2="174.40794" xlink:href="#Degradado_sin_nombre_12"/><radialGradient id="Degradado_sin_nombre_151" cx="120.04145" cy="294.58968" r="33.76632" gradientUnits="userSpaceOnUse"><stop offset="0" stop-color="#1b1464"/><stop offset="1" stop-color="#0087bf"/></radialGradient><radialGradient id="Degradado_sin_nombre_151-2" cx="176.19848" cy="294.58968" r="21.48038" xlink:href="#Degradado_sin_nombre_151"/><radialGradient id="Degradado_sin_nombre_151-3" cx="223.10551" cy="294.58968" r="28.24057" xlink:href="#Degradado_sin_nombre_151"/><radialGradient id="Degradado_sin_nombre_151-4" cx="287.74974" cy="294.58968" r="27.99443" xlink:href="#Degradado_sin_nombre_151"/><radialGradient id="Degradado_sin_nombre_151-5" cx="344.3632" cy="294.58968" r="29.60991" xlink:href="#Degradado_sin_nombre_151"/><radialGradient id="Degradado_sin_nombre_151-6" cx="396.35136" cy="294.58968" r="27.29453" xlink:href="#Degradado_sin_nombre_151"/><radialGradient id="Degradado_sin_nombre_151-7" cx="448.33952" cy="294.58968" r="25.3372" xlink:href="#Degradado_sin_nombre_151"/><radialGradient id="Degradado_sin_nombre_151-8" cx="497.53499" cy="294.79294" r="26.98432" xlink:href="#Degradado_sin_nombre_151"/></defs><g id="Capa_2" data-name="Capa 2"><g id="Logo"><g id="ColorFC"><rect width="592" height="333" style="fill:url(#Degradado_sin_nombre_6)"/><path d="M223.89608,219.769l-17.00179-17.00247,56.71754-56.71754c-5.18628-5.18619-10.187-10.18687-15.74555-15.74546l-72.46325,72.463,48.49305,48.49306L329.1063,146.04872c-4.32057-4.32058-12.36147-12.36141-15.74549-15.74543Z" style="fill:url(#Degradado_sin_nombre_5)"/><path d="M362.19166,15.97852,263.724,114.67014c5.48206,5.48206,10.13973,10.1399,15.63325,15.63334l82.83437-82.83437L517.48972,202.76648,500.48725,219.769,362.19166,81.472,329.1061,114.558c5.08895,5.08895,10.621,10.621,15.74549,15.74543l17.34007-17.34016L500.48725,251.25954l48.49305-48.49306Z" style="fill:url(#Degradado_sin_nombre_5-2)"/><path d="M296.35893,147.30543,230.52624,81.472,92.23066,219.76893,75.22887,202.76646,230.52624,47.46908l50.18022,50.18c3.33135-3.33127,12.50543-12.54145,15.72729-15.7633L230.52624,15.9785,43.7376,202.76646l48.49306,48.49305L230.52624,112.96325l50.08735,50.0876Z" style="fill:url(#Degradado_sin_nombre_12)"/><path d="M417.31488,202.76646,312.10437,97.55637l-15.74529,15.7453,89.46522,89.46479-17.00247,17.00247-56.71752-56.71812c-2.10838,2.10838-13.23656,13.23664-15.74534,15.74542l72.46286,72.46328Z" style="fill:url(#Degradado_sin_nombre_12-2)"/><path d="M158.00455,323.55745h-17.076l-1.32118-31.915q-.30488-9.45327-.7114-14.33144h-.30488q-1.21955,3.86248-2.8462,11.99338l-.50815,2.54132-7.013,31.71174h-17.076l-5.89506-28.56186-1.01629-5.08143q-2.1351-9.45325-2.94783-12.60315h-.30489q-.40772,5.082-.7114,16.56727a17.38009,17.38009,0,0,0-.10163,2.23583l-.91525,27.44334H82.07834l2.43909-57.93554h29.07l4.9804,25.003,1.21955,6.70869q.81182-3.14808,1.52443-7.013l4.67551-24.69877h29.67977Z" style="stroke:aqua;stroke-miterlimit:10;stroke-width:0.75px;fill:url(#Degradado_sin_nombre_151)"/><path d="M167.0507,265.62191h18.29556v57.93554H167.0507Z" style="stroke:aqua;stroke-miterlimit:10;stroke-width:0.75px;fill:url(#Degradado_sin_nombre_151-2)"/><path d="M212.58574,300.18046v23.377H195.61136V265.62191H212.789l15.34773,23.377a94.25628,94.25628,0,0,1,5.28529,8.74127h.30488V265.62191h16.87276v57.93554H233.32039L217.56615,299.163l-4.57389-6.91075h-.30489Z" style="stroke:aqua;stroke-miterlimit:10;stroke-width:0.75px;fill:url(#Degradado_sin_nombre_151-3)"/><path d="M314.73575,323.55745H294.7119l-11.282-21.64991q-.30489-.50694-1.57554-2.8456a43.3377,43.3377,0,0,0-2.79509-4.47286v28.96837H260.76373V265.62191h18.29556v26.32483a23.1876,23.1876,0,0,0,2.99834-4.21789q1.27006-2.28755,1.47392-2.69406L294.407,265.62191h19.31124l-11.58687,19.41288c-.202.27181-.64465.98381-1.32057,2.1348a28.09165,28.09165,0,0,1-2.18411,3.2016,23.9167,23.9167,0,0,1-2.49141,2.69406,22.30448,22.30448,0,0,1,2.999,3.40486q1.16542,1.676,2.69166,4.42115Z" style="stroke:aqua;stroke-miterlimit:10;stroke-width:0.75px;fill:url(#Degradado_sin_nombre_151-4)"/><path d="M352.74847,310.85207h-16.874l-3.04766,12.70538H314.12478l18.70207-57.93554h23.88573l17.889,57.93554H355.79612Zm-8.53921-32.728-5.99669,21.44544h12.09681L344.61577,278.124Z" style="stroke:aqua;stroke-miterlimit:10;stroke-width:0.75px;fill:url(#Degradado_sin_nombre_151-5)"/><path d="M405.49914,323.55745H387.20358V278.3273h-16.364V265.62191h51.02358V278.3273h-16.364Z" style="stroke:aqua;stroke-miterlimit:10;stroke-width:0.75px;fill:url(#Degradado_sin_nombre_151-6)"/><path d="M427.24887,265.62191h42.18129v12.19664H445.54443v10.57058h20.12608v10.9771H445.54443v11.79132h23.78471v12.3999H427.24887Z" style="stroke:aqua;stroke-miterlimit:10;stroke-width:0.75px;fill:url(#Degradado_sin_nombre_151-7)"/><path d="M521.26919,321.6259a34.13817,34.13817,0,0,1-8.74127,2.33806,65.77357,65.77357,0,0,1-9.25121.712q-13.82269,0-21.6487-7.21744-7.826-7.21443-7.82721-22.15745,0-15.24609,8.23372-22.81893,8.23372-7.56984,23.17373-7.57224a61.21292,61.21292,0,0,1,14.84139,1.93155q0,2.035-.40651,6.0472a46.08551,46.08551,0,0,1-.813,5.64189h-6.40561q-7.01058,0-11.02641.25377-4.01583.25439-4.82766.96578-1.52624,1.4234-2.33806,5.74292a44.6627,44.6627,0,0,0-.813,8.283q0,6.91316,1.72709,10.6223a9.49073,9.49073,0,0,0,4.37063,4.92869q2.54012,1.22135,8.43578,1.22074a118.43655,118.43655,0,0,0,12.19784-.813Z" style="stroke:aqua;stroke-miterlimit:10;stroke-width:0.75px;fill:url(#Degradado_sin_nombre_151-8)"/></g></g></g></svg>